<svg xmlns="http://www.w3.org/2000/svg" xmlns:xlink="http://www.w3.org/1999/xlink" width="245" height="47" viewBox="0 0 245 47"><defs><path id="p10ja" d="M1347 687.751v-.694c.166-1.097.1-2.22.338-3.31.715-3.272 2.074-6.226 4.288-8.783 2.932-3.387 6.686-5.395 10.923-6.651 1.607-.477 3.242-.691 4.908-.736.078-.002.155 0 .216-.058h206.911c.16.18.114.4.114.608.003 8.474-.002 16.948.004 25.422.003 3.238-.748 6.306-2.197 9.18-1.68 3.333-4.202 5.924-7.41 7.846-2.614 1.566 27.554 2.574 24.567 3.14-.905.171-1.842.17-2.766.223-.19.011-.387-.053-.567.056h-.232c-.236-.117-.489-.03-.733-.057-55.201 0-182.365 0-237.565-.004-.266 0-.54.062-.8-.054v-25.434a.906.906 0 0 0 0-.694z"/><path id="p10jb" d="M1355 687.751v-.694c.166-1.097.1-2.22.338-3.31.715-3.272 2.073-6.226 4.288-8.783 2.932-3.387 6.686-5.395 10.923-6.651 1.607-.477 3.242-.691 4.909-.736.077-.002.154 0 .215-.058h206.911c.16.18.114.4.115.608.002 8.474-.003 16.948.003 25.422.003 3.238-.748 6.306-2.197 9.18-1.68 3.333-4.202 5.924-7.41 7.846-2.614 1.566-5.446 2.574-8.433 3.14-.905.171 31.158.17 30.234.223-.19.011-.387-.053-.567.056h-.232c-.236-.117-.489-.03-.733-.057-55.2 0-182.365 0-237.565-.004-.266 0-.54.062-.8-.054v-25.434a.907.907 0 0 0 0-.694z"/><path id="p10jc" d="M1364 687.751v-.694c.165-1.097.1-2.22.338-3.31.715-3.272 2.074-6.226 4.288-8.783 2.932-3.387 6.686-5.395 10.923-6.651 1.607-.477 3.242-.691 4.908-.736.078-.002.155 0 .216-.058h206.911c.16.18.114.4.114.608.003 8.474-.002 16.948.004 25.422.003 3.238-.748 6.306-2.197 9.18-1.68 3.333-4.202 5.924-7.41 7.846-2.614 1.566-5.446 2.574-8.433 3.14-.905.171-1.842.17-2.766.223-.19.011-.387-.053-.567.056h-.232c-.236-.117-.489-.03-.733-.057-55.201 0-149.365 0-204.565-.004-.266 0-.54.062-.8-.054v-25.434a.907.907 0 0 0 0-.694z"/></defs><g><g transform="translate(-1347 -667)"><use fill="#f2c0dc" xlink:href="#p10ja"/></g><g transform="translate(-1347 -667)"><use fill="#ce5f96" xlink:href="#p10jb"/></g><g transform="translate(-1347 -667)"><use fill="#b6cb47" xlink:href="#p10jc"/></g></g></svg>