<svg xmlns="http://www.w3.org/2000/svg" xmlns:xlink="http://www.w3.org/1999/xlink" width="30" height="29" viewBox="0 0 30 29"><defs><path id="mmgha" d="M1362.161 833.919l-15.395 15.374a1.868 1.868 0 0 1-2.64 0 1.862 1.862 0 0 1 0-2.636l9.977-9.962-4.743-4.735-3.367-1.183-2.395-4.97 1.596-1.594 4.977 2.392 1.185 3.362 4.742 4.736 3.424-3.42zm10.253-.89l-4.4 4.392a.416.416 0 0 1-.586 0l-2.052-2.05a.413.413 0 0 1 0-.585l.586-.586-1.01-1.008-.293.293a.83.83 0 0 1-1.173 0l-3.518-3.514a.828.828 0 0 1 0-1.171l.41-.41c2.202-2.199-.796-5.609-4.255-5.512-.367.01-.488-.495-.151-.641 2.892-1.257 5.807-.413 8.843 2.619l3.657 3.651a.827.827 0 0 1 0 1.171l-.294.293 1.01 1.008.586-.586a.415.415 0 0 1 .587 0l2.053 2.05a.414.414 0 0 1 0 .586zm-4.41 10.916c1.282 1.28 1.578 3.652.295 4.933a3.289 3.289 0 0 1-4.646 0l-4.995-4.987.065-.064a.82.82 0 0 0 0-1.16.822.822 0 0 0-1.161 0l-.065.064-.903-.902 4.645-4.638.904.901-.065.065a.82.82 0 0 0 0 1.16c.321.32.84.32 1.162 0l.064-.065z"/></defs><g><g transform="translate(-1343 -821)"><use fill="#552752" xlink:href="#mmgha"/></g></g></svg>