<svg xmlns="http://www.w3.org/2000/svg" xmlns:xlink="http://www.w3.org/1999/xlink" width="34" height="26" viewBox="0 0 34 26"><defs><path id="uiona" d="M1380.004 784v7.848c0 .724-.584 1.308-1.308 1.308h-4.095a5.23 5.23 0 0 1-5.061 3.924 5.23 5.23 0 0 1-5.061-3.924h-5.574a5.23 5.23 0 0 1-5.061 3.924 5.229 5.229 0 0 1-5.061-3.924h-2.351a.437.437 0 0 1-.436-.436v-3.052c0-.24.196-.436.436-.436v-15.696a2.623 2.623 0 0 1 2.616-2.616h17.876a2.624 2.624 0 0 1 2.616 2.616V784l7.848 2.616V784c0-.96-1.168-3.933-4.412-5.237-.497-.2-.82-.68-.82-1.212 0-.13.017-.257.052-.375.009-.04.026-.078.04-.117a1.313 1.313 0 0 1 1.704-.728c.009.004.022.008.031.013 4.164 1.683 6.021 5.537 6.021 7.656zm-23.544 7.848a2.619 2.619 0 0 0-2.616-2.616 2.619 2.619 0 0 0-2.616 2.616 2.619 2.619 0 0 0 2.616 2.616 2.619 2.619 0 0 0 2.616-2.616zm15.696 0a2.619 2.619 0 0 0-2.616-2.616 2.619 2.619 0 0 0-2.616 2.616 2.619 2.619 0 0 0 2.616 2.616 2.619 2.619 0 0 0 2.616-2.616z"/></defs><g><g transform="translate(-1346 -771)"><use fill="#552752" xlink:href="#uiona"/></g></g></svg>