<svg xmlns="http://www.w3.org/2000/svg" xmlns:xlink="http://www.w3.org/1999/xlink" width="34" height="34" viewBox="0 0 34 34"><defs><path id="8b29a" d="M1016.353 774.785l-10.354 17.934v-3.751l.602-1.044-.602-.348v-2.888l1.852 1.07 2.501-4.331-4.331-2.5-.022.038v-3.75l2.774-4.806a1.251 1.251 0 0 1 1.708-.457l5.414 3.125a1.25 1.25 0 0 1 .458 1.708zm-2.25.145l-4.331-2.5-2.5 4.33 4.33 2.502zm1.306 6.49l4.805-2.773a1.251 1.251 0 0 1 1.708.457l3.126 5.415a1.25 1.25 0 0 1-.458 1.707l-17.933 10.354 1.876-3.248 1.043-.603-.348-.602 1.444-2.5 1.07 1.852 4.33-2.501-2.5-4.331-.038.022zm.33 1.976l2.5 4.331 4.33-2.5-2.5-4.331zm11.515 9.356v6.251c0 .691-.56 1.25-1.25 1.25h-20.709l3.248-1.875h1.207v-.696l2.5-1.444v2.14h5.001v-5h-.045l3.249-1.877h5.549c.69 0 1.25.56 1.25 1.25zm-2.5.625h-5.002v5.001h5.001zm-21.256-24.38v30.006c0 .691-.56 1.25-1.25 1.25h-6.252c-.69 0-1.25-.559-1.25-1.25v-30.007c0-.692.558-1.25 1.25-1.25h6.252c.692 0 1.25.558 1.25 1.25zm-2.5 26.88a1.875 1.875 0 1 0-3.752 0 1.875 1.875 0 0 0 3.751 0z"/></defs><g><g transform="translate(-994 -767)"><use fill="#552752" xlink:href="#8b29a"/></g></g></svg>