<svg xmlns="http://www.w3.org/2000/svg" xmlns:xlink="http://www.w3.org/1999/xlink" width="34" height="30" viewBox="0 0 34 30"><defs><path id="i1r1a" d="M1014.743 838.292c0 1.035.84 1.876 1.875 1.876a1.877 1.877 0 0 0 1.876-1.876 1.877 1.877 0 0 0-3.75 0zm-14.996-16.88a5 5 0 0 0-5.001 5.002v18.755a5 5 0 0 0 5.001 5h22.506v-7.5h-5.634a4.39 4.39 0 0 1-4.377-4.377 4.39 4.39 0 0 1 4.377-4.376h5.634v-5.626h-22.506a1.873 1.873 0 0 1-1.875-1.876c0-1.037.837-1.875 1.875-1.875h25.006v23.113h2.5v-26.24z"/></defs><g><g transform="translate(-994 -821)"><use fill="#552752" xlink:href="#i1r1a"/></g></g></svg>