<svg xmlns="http://www.w3.org/2000/svg" xmlns:xlink="http://www.w3.org/1999/xlink" width="84" height="106" viewBox="0 0 84 106"><defs><path id="y3u7a" d="M570.989 3732.25c-12.076 0-22.63 8.145-25.667 19.807a2.21 2.21 0 0 1-4.277-1.112c3.542-13.608 15.856-23.112 29.944-23.112a2.21 2.21 0 1 1 0 4.417zm-26.492 25.311c-.017.394-.026.793-.026 1.189a2.21 2.21 0 0 1-4.42 0c0-.46.01-.925.03-1.383a2.21 2.21 0 0 1 4.416.194zm56.435 8.993c-3.541 13.609-15.855 23.113-29.943 23.113a2.21 2.21 0 1 1 0-4.417c12.076 0 22.63-8.145 25.666-19.808a2.208 2.208 0 0 1 2.695-1.581 2.208 2.208 0 0 1 1.582 2.693zm-3.45-6.616c.016-.393.025-.793.025-1.188a2.21 2.21 0 0 1 4.42 0c0 .459-.01.925-.03 1.382a2.21 2.21 0 0 1-2.206 2.112l-.1-.003a2.21 2.21 0 0 1-2.11-2.303zm-19.24 13.182h-12.975c-.823 0-1.234-.382-1.234-1.148v-2.636c0-.737.411-1.106 1.234-1.106h4.041v-18.195l-4.04 1.53c-.342.142-.667.212-.98.212-.368 0-.623-.198-.766-.595-.652-1.814-.978-2.861-.978-3.146 0-.34.213-.609.638-.807l4.978-1.999c1.361-.567 2.595-.85 3.702-.85h.34c1.9 0 2.85.977 2.85 2.933v20.917h3.149c.822 0 1.234.37 1.234 1.106v2.72c0 .426-.093.71-.277.85-.184.143-.49.214-.915.214zm34.278 36.882a2.212 2.212 0 0 1-2.325.788l-17.186-4.601-4.605 17.173a2.21 2.21 0 0 1-4.048.533l-13.38-23.159-13.353 23.157a2.21 2.21 0 0 1-4.049-.53l-4.605-17.174-17.186 4.601a2.208 2.208 0 1 1-2.485-3.237l12.57-21.758c-6.607-7.099-10.656-16.608-10.656-27.046 0-21.918 17.844-39.75 39.777-39.75 21.934 0 39.778 17.832 39.778 39.75 0 10.438-4.05 19.947-10.657 27.047l12.57 21.757c.447.774.384 1.74-.16 2.449zm-45.253-11.678c-8.398-.783-16.046-4.184-22.115-9.378l-9.36 16.2 14.168-3.794a2.209 2.209 0 0 1 2.706 1.56l3.795 14.152zm3.722-4.242c19.497 0 35.358-15.85 35.358-35.333 0-19.483-15.861-35.333-35.358-35.333-19.496 0-35.357 15.85-35.357 35.333 0 19.483 15.861 35.333 35.357 35.333zm35.196 11.062l-9.359-16.198c-6.076 5.198-13.732 8.601-22.14 9.38l10.83 18.744 3.796-14.157a2.21 2.21 0 0 1 2.706-1.561z"/><path id="y3u7b" d="M579.158 3772.907c.184-.142.277-.425.277-.85v-2.721c0-.737-.412-1.106-1.234-1.106h-3.149v-20.917c0-1.956-.95-2.933-2.85-2.933h-.34c-1.107 0-2.34.283-3.702.85l-4.978 1.999c-.425.198-.638.467-.638.807 0 .285.326 1.332.978 3.146.143.397.398.595.767.595.312 0 .637-.07.978-.212l4.041-1.53v18.195h-4.04c-.824 0-1.235.369-1.235 1.106v2.636c0 .766.411 1.148 1.234 1.148h12.976c.425 0 .73-.071.915-.213z"/></defs><g><g transform="translate(-529 -3719)"><use fill="#f5cd3a" xlink:href="#y3u7a"/></g><g transform="translate(-529 -3719)"><use fill="#1b242c" xlink:href="#y3u7b"/></g></g></svg>