<svg xmlns="http://www.w3.org/2000/svg" xmlns:xlink="http://www.w3.org/1999/xlink" width="97" height="97" viewBox="0 0 97 97"><defs><path id="kx9ua" d="M889 3762.543v9.912a6.51 6.51 0 0 1-6.502 6.502h-7.058a36.62 36.62 0 0 1-2.135 5.143l4.994 4.995a6.51 6.51 0 0 1 0 9.194l-7.009 7.009a6.51 6.51 0 0 1-9.195 0l-4.993-4.994a36.623 36.623 0 0 1-5.145 2.135v7.058a6.51 6.51 0 0 1-6.501 6.502h-9.912a6.51 6.51 0 0 1-6.502-6.501v-7.059a36.647 36.647 0 0 1-5.144-2.135l-4.994 4.994a6.509 6.509 0 0 1-9.195 0l-7.008-7.008a6.51 6.51 0 0 1 0-9.195l4.994-4.995a36.591 36.591 0 0 1-2.135-5.143H798.5a6.509 6.509 0 0 1-6.501-6.502v-9.912a6.509 6.509 0 0 1 6.501-6.501h7.059a36.587 36.587 0 0 1 2.135-5.145l-4.994-4.994a6.509 6.509 0 0 1 0-9.194l7.008-7.009a6.51 6.51 0 0 1 9.195 0l4.994 4.994a36.61 36.61 0 0 1 5.144-2.135v-7.058a6.51 6.51 0 0 1 6.502-6.502h9.912a6.509 6.509 0 0 1 6.501 6.502v7.058a36.62 36.62 0 0 1 5.145 2.135l4.993-4.994a6.51 6.51 0 0 1 9.195 0l7.009 7.008a6.51 6.51 0 0 1 0 9.195l-4.994 4.994a36.597 36.597 0 0 1 2.135 5.145h7.058a6.508 6.508 0 0 1 6.502 6.501zm-3.865 9.912v-9.911a2.64 2.64 0 0 0-2.637-2.637h-8.488a1.932 1.932 0 0 1-1.859-1.406 32.743 32.743 0 0 0-2.911-7.016 1.932 1.932 0 0 1 .32-2.308l6.006-6.005a2.64 2.64 0 0 0 0-3.73l-7.009-7.01a2.641 2.641 0 0 0-3.73 0l-6.004 6.006a1.933 1.933 0 0 1-2.309.321 32.748 32.748 0 0 0-7.016-2.911 1.932 1.932 0 0 1-1.405-1.86v-8.487a2.64 2.64 0 0 0-2.637-2.637h-9.912a2.64 2.64 0 0 0-2.637 2.637v8.487c0 .864-.574 1.623-1.405 1.86a32.72 32.72 0 0 0-7.017 2.91 1.932 1.932 0 0 1-2.308-.32l-6.005-6.006a2.641 2.641 0 0 0-3.73 0l-7.008 7.01a2.64 2.64 0 0 0 0 3.729l6.005 6.005c.611.611.742 1.554.32 2.308a32.744 32.744 0 0 0-2.911 7.017 1.932 1.932 0 0 1-1.859 1.405h-8.488a2.64 2.64 0 0 0-2.637 2.637v9.912a2.64 2.64 0 0 0 2.637 2.637h8.488c.864 0 1.623.573 1.859 1.405a32.739 32.739 0 0 0 2.911 7.016c.422.755.29 1.698-.32 2.309l-6.006 6.005a2.64 2.64 0 0 0 0 3.73l7.009 7.008a2.64 2.64 0 0 0 3.73 0l6.004-6.005a1.933 1.933 0 0 1 2.309-.32 32.737 32.737 0 0 0 7.017 2.911 1.932 1.932 0 0 1 1.405 1.859v8.488a2.64 2.64 0 0 0 2.637 2.637h9.912a2.64 2.64 0 0 0 2.637-2.637v-8.488c0-.864.573-1.623 1.405-1.859a32.735 32.735 0 0 0 7.016-2.912 1.932 1.932 0 0 1 2.309.321l6.005 6.006a2.64 2.64 0 0 0 3.73 0l7.008-7.009a2.64 2.64 0 0 0 0-3.73l-6.005-6.005a1.932 1.932 0 0 1-.321-2.308 32.73 32.73 0 0 0 2.911-7.016 1.932 1.932 0 0 1 1.86-1.406h8.487a2.64 2.64 0 0 0 2.637-2.637zm-24.614-4.956c0 11.04-8.982 20.02-20.021 20.02-11.04 0-20.02-8.98-20.02-20.02s8.98-20.02 20.02-20.02 20.02 8.98 20.02 20.02zm-3.865 0c0-8.908-7.247-16.156-16.156-16.156-8.909 0-16.156 7.248-16.156 16.156 0 8.909 7.248 16.156 16.156 16.156 8.908 0 16.156-7.247 16.156-16.156zm-39.343 0a1.932 1.932 0 0 1-3.865 0 26.95 26.95 0 0 1 4.347-14.712 27.098 27.098 0 0 1 11.26-9.805 1.931 1.931 0 1 1 1.636 3.5c-8.127 3.8-13.378 12.05-13.378 21.017zm21.255-25.12c0-1.067.865-1.932 1.932-1.932 3.76 0 7.401.758 10.821 2.252a1.932 1.932 0 1 1-1.547 3.541 23.025 23.025 0 0 0-9.274-1.928 1.933 1.933 0 0 1-1.932-1.933z"/><path id="kx9ub" d="M860.52 3767.5c0 11.038-8.98 20.02-20.02 20.02s-20.02-8.982-20.02-20.02c0-11.04 8.98-20.021 20.02-20.021s20.02 8.98 20.02 20.02zm-3.864 0c0-8.91-7.247-16.157-16.156-16.157-8.909 0-16.156 7.248-16.156 16.156 0 8.909 7.248 16.156 16.156 16.156 8.908 0 16.156-7.247 16.156-16.156z"/></defs><g><g transform="translate(-792 -3719)"><use fill="#f5cd3a" xlink:href="#kx9ua"/></g><g transform="translate(-792 -3719)"><use fill="#1b242c" xlink:href="#kx9ub"/></g></g></svg>