<svg xmlns="http://www.w3.org/2000/svg" xmlns:xlink="http://www.w3.org/1999/xlink" width="96" height="96" viewBox="0 0 96 96"><defs><path id="rpdca" d="M1155.59 3791.017c-5.199 9.006-13.16 15.936-22.472 19.98h.893a2.001 2.001 0 0 1 0 4.002h-40.021a2.002 2.002 0 0 1 0-4.003h.745a47.653 47.653 0 0 1-4.748-2.397c-11.065-6.39-18.992-16.753-22.321-29.182-3.33-12.428-1.645-25.368 4.743-36.436 8.539-14.792 24.526-23.982 41.723-23.982 8.372 0 16.63 2.213 23.88 6.4 11.065 6.39 18.992 16.753 22.322 29.182 3.33 12.428 1.645 25.368-4.744 36.436zm.879-35.4c-3.053-11.395-10.318-20.896-20.458-26.751a43.807 43.807 0 0 0-21.88-5.864c-15.77 0-30.43 8.423-38.256 21.98-12.137 21.027-4.909 48.01 16.113 60.15a43.814 43.814 0 0 0 21.88 5.863c15.771 0 30.43-8.422 38.257-21.98 5.854-10.142 7.396-22.003 4.344-33.398zm-50.376 48.632a2.002 2.002 0 0 1-2.451 1.415c-13.767-3.69-24.61-14.536-28.3-28.305a2.001 2.001 0 1 1 3.866-1.036c3.32 12.393 13.08 22.154 25.47 25.475a2.001 2.001 0 0 1 1.415 2.451zm46.564-47.61a2.002 2.002 0 0 1-3.866 1.036c-3.32-12.393-13.08-22.154-25.47-25.475a2.002 2.002 0 0 1 1.037-3.866c13.766 3.69 24.61 14.535 28.299 28.305zm-37.921 48.435a2 2 0 0 1-1.999 1.934h-.068a40.135 40.135 0 0 1-1.665-.091 2.002 2.002 0 0 1 .303-3.992c.491.037.995.064 1.497.082a2 2 0 0 1 1.932 2.067zm-1.473-76.151a1.996 1.996 0 0 1 2.068-1.932c.552.02 1.11.05 1.66.09a2.001 2.001 0 1 1-.296 3.993 36.503 36.503 0 0 0-1.5-.082 2.002 2.002 0 0 1-1.932-2.069zm24.486 28.176c.91 1.018 1.312 2.469 1.13 4.084l-2.313 20.557c-.256 2.276-1.996 3.928-4.139 3.928h-21.144c-2.169 0-4.048-.533-5.55-1.509a2 2 0 0 1-1.937 1.509h-12.717c-1.104 0-2-.896-2-2.002v-26.026c0-1.105.895-2 2-2h12.717a2 2 0 0 1 1.92 1.44c1.996-1.799 3.943-5.832 4.625-13.03.197-2.089 1.996-3.726 4.096-3.726.129 0 .259.006.387.018 3.655.346 6.295 1.605 7.846 3.742 2.311 3.183 1.74 7.495.883 11.555h10.68c1.828 0 2.921.793 3.516 1.46zm-35.954 2.543h-8.715v4.002h4.358a2.001 2.001 0 0 1 0 4.003h-4.358v14.018h8.715zm32.97.123c-.069-.077-.273-.123-.533-.123h-13.17a2 2 0 0 1-1.953-2.437l.141-.632c.833-3.72 1.778-7.938.181-10.138-.846-1.166-2.523-1.875-4.984-2.108a.114.114 0 0 0-.122.1c-.558 5.889-1.941 10.44-4.11 13.528-1.498 2.135-3.114 3.208-4.418 3.744v14.378c0 2.086.713 5.588 5.486 5.588h21.154c.023-.016.126-.141.152-.373l2.312-20.557c.057-.498-.031-.851-.136-.97z"/><path id="rpdcb" d="M1137.75 3757.099c.91 1.018 1.31 2.469 1.128 4.084l-2.312 20.557c-.256 2.276-1.996 3.928-4.139 3.928h-21.144c-2.169 0-4.048-.533-5.55-1.509a2 2 0 0 1-1.937 1.509h-12.717c-1.104 0-2-.896-2-2.002v-26.026c0-1.105.895-2 2-2h12.717a2 2 0 0 1 1.92 1.44c1.996-1.799 3.943-5.832 4.625-13.03.197-2.089 1.996-3.726 4.096-3.726.129 0 .259.006.387.018 3.655.346 6.295 1.605 7.846 3.742 2.311 3.183 1.74 7.495.883 11.555h10.68c1.828 0 2.921.793 3.516 1.46zm-35.955 2.543h-8.715v4.002h4.358a2.001 2.001 0 0 1 0 4.003h-4.358v14.018h8.715zm32.97.123c-.069-.077-.273-.123-.533-.123h-13.17a2 2 0 0 1-1.953-2.437l.141-.632c.833-3.72 1.778-7.938.181-10.138-.846-1.166-2.523-1.875-4.984-2.108a.114.114 0 0 0-.122.1c-.558 5.889-1.941 10.44-4.11 13.528-1.498 2.135-3.114 3.208-4.418 3.744v14.378c0 2.086.713 5.588 5.486 5.588h21.154c.023-.016.126-.141.152-.373l2.312-20.557c.057-.498-.031-.851-.136-.97z"/></defs><g><g transform="translate(-1066 -3719)"><use fill="#f5cd3a" xlink:href="#rpdca"/></g><g transform="translate(-1066 -3719)"><use fill="#1b242c" xlink:href="#rpdcb"/></g></g></svg>