<svg xmlns="http://www.w3.org/2000/svg" xmlns:xlink="http://www.w3.org/1999/xlink" width="82" height="98" viewBox="0 0 82 98"><defs><path id="7rvra" d="M1426 3738.395c0 23.839-2.982 39.712-9.666 51.468-6.638 11.673-16.519 18.933-30.31 26.863a2.055 2.055 0 0 1-2.05 0c-13.79-7.93-23.67-15.19-30.308-26.863-6.685-11.756-9.666-27.63-9.666-51.468 0-1.128.918-2.042 2.05-2.042 6.398 0 11.254-3.73 16.396-7.677 5.907-4.535 12.602-9.677 22.554-9.677 9.952 0 16.647 5.142 22.554 9.677 5.142 3.947 9.997 7.677 16.396 7.677 1.131 0 2.05.914 2.05 2.042zm-4.107 1.939c-6.754-.678-11.876-4.61-16.843-8.425-5.651-4.34-11.495-8.826-20.05-8.826-8.555 0-14.4 4.487-20.05 8.826-4.968 3.815-10.089 7.747-16.843 8.425.323 45.53 12.165 57.902 36.893 72.263 24.728-14.36 36.57-26.732 36.893-72.263zm-61.973 4.741c-.288.15-.579.299-.872.442a2.053 2.053 0 0 1-2.744-.93 2.039 2.039 0 0 1 .933-2.734c.26-.127.518-.258.772-.391a2.054 2.054 0 0 1 2.77.855 2.038 2.038 0 0 1-.86 2.758zm53.125 11.033l.067-.758a2.047 2.047 0 0 1 2.215-1.862 2.045 2.045 0 0 1 1.87 2.206c-.022.261-.045.523-.069.784a2.047 2.047 0 0 1-2.227 1.848 2.044 2.044 0 0 1-1.856-2.218zm-49.878-15.346a2.036 2.036 0 0 1 .462-2.85c1.145-.823 2.28-1.684 3.378-2.517 5.581-4.233 10.852-8.23 17.993-8.23 1.132 0 2.05.915 2.05 2.042a2.046 2.046 0 0 1-2.05 2.042c-5.757 0-10.276 3.426-15.509 7.394a166.245 166.245 0 0 1-3.463 2.58 2.05 2.05 0 0 1-2.862-.46zm38.167 49.194c5.708-6.706 9.326-15.923 11.061-28.18a2.048 2.048 0 0 1 2.316-1.736 2.043 2.043 0 0 1 1.744 2.306c-1.846 13.044-5.77 22.939-11.994 30.25-5.459 6.411-12.7 11.184-18.398 14.625-.01.006-.021.01-.032.017-.049.028-.1.053-.15.077-.034.015-.066.033-.1.046-.046.02-.093.034-.14.05-.04.013-.078.027-.118.038-.043.01-.087.018-.131.026-.043.009-.086.02-.13.025-.062.009-.125.01-.188.013-.024 0-.048.004-.072.004H1385h-.002c-.024 0-.048-.004-.072-.004-.063-.003-.126-.005-.188-.013-.044-.005-.088-.016-.131-.025-.043-.008-.087-.015-.13-.026-.04-.01-.079-.026-.118-.039-.048-.015-.095-.03-.14-.05-.034-.013-.067-.03-.1-.045a2.045 2.045 0 0 1-.15-.078l-.032-.016c-5.699-3.442-12.94-8.214-18.398-14.624a2.037 2.037 0 0 1 .237-2.879 2.057 2.057 0 0 1 2.89.237c4.751 5.579 11.088 9.906 16.334 13.127 5.247-3.221 11.583-7.548 16.334-13.126zm1.609-47.353a6.63 6.63 0 0 1 4.711 1.938 6.625 6.625 0 0 1 .001 9.385l-26.064 25.958a1.416 1.416 0 0 1-.055.054l-.084.083-.038.035-.087.08-.034.03-.087.078-.054.045-.051.042-.071.059-.091.072-.034.025-.092.07a1.038 1.038 0 0 1-.048.035l-.093.066-.05.035-.095.063c-.01.007-.021.015-.032.021l-.096.062c-.016.01-.03.02-.046.028l-.098.059-.047.028-.1.057-.043.024-.053.028a1.515 1.515 0 0 1-.096.051l-.1.051-.041.02-.102.049-.052.023-.053.023c-.032.016-.065.03-.098.044l-.103.042-.035.014-.105.04-.047.02-.107.038a1.345 1.345 0 0 1-.056.019l-.053.017a2.163 2.163 0 0 1-.1.034l-.107.032a1.16 1.16 0 0 1-.044.013l-.107.03a1.069 1.069 0 0 1-.043.011l-.107.028-.052.012-.11.025c-.013.004-.028.006-.042.009l-.108.023a.865.865 0 0 1-.06.01l-.053.01a1.661 1.661 0 0 1-.1.018l-.11.017-.05.007-.112.014-.045.005-.052.006a1.722 1.722 0 0 1-.103.01l-.11.01-.064.004-.052.003a1.372 1.372 0 0 1-.103.006l-.11.003-.034.001-.11.001H1376.705l-.034-.002-.11-.003c-.035 0-.07-.003-.103-.006l-.052-.003c-.021 0-.042-.002-.063-.004l-.11-.01a2.472 2.472 0 0 1-.105-.01l-.052-.006a2.584 2.584 0 0 1-.047-.005l-.11-.014-.05-.007-.109-.017-.097-.017-.054-.01-.062-.011-.108-.022-.047-.011-.108-.025a1.409 1.409 0 0 0-.044-.01l-.109-.028a5.756 5.756 0 0 1-.045-.012l-.107-.03-.046-.014-.107-.032a1.621 1.621 0 0 1-.106-.035l-.051-.017-.052-.017-.106-.039-.047-.018-.105-.04-.028-.012-.105-.043a2.043 2.043 0 0 1-.111-.05l-.052-.022-.044-.02-.102-.049a1.564 1.564 0 0 1-.053-.027l-.101-.05a.5.5 0 0 1-.032-.017l-.1-.053a1.676 1.676 0 0 1-.058-.033l-.098-.055-.04-.024-.097-.059-.04-.024-.096-.061-.046-.03-.095-.065a1.825 1.825 0 0 1-.042-.029l-.094-.066-.039-.029-.093-.07a1.71 1.71 0 0 1-.051-.038l-.09-.073-.032-.025-.089-.074c-.014-.011-.028-.022-.041-.035l-.088-.077a1.472 1.472 0 0 1-.046-.041l-.086-.08-.038-.036-.085-.083-9.801-9.76a6.626 6.626 0 0 1 0-9.385 6.632 6.632 0 0 1 4.712-1.939c1.783 0 3.456.689 4.711 1.938l5.075 5.055 21.385-21.298a6.632 6.632 0 0 1 4.713-1.939zm1.812 4.826a2.55 2.55 0 0 0-1.813-.742c-.688 0-1.332.263-1.812.742l-22.836 22.742a2.058 2.058 0 0 1-2.899 0l-6.524-6.499a2.55 2.55 0 0 0-1.812-.742 2.549 2.549 0 0 0-1.813 4.354l9.884 9.838.354.266.385.195.201.073h.002l.353.082.015.003.177.021.012.002.102.006h.013l.037.001.064.001.102-.002h.012l.1-.006.014-.002.177-.021a.131.131 0 0 1 .013-.003l.354-.082a.087.087 0 0 0 .007-.003l.23-.083.003-.002.346-.178.244-.172a.033.033 0 0 1 .006-.005l.19-.17.014-.013 26.098-25.991c1-.995.999-2.615 0-3.61z"/><path id="7rvrb" d="M1402.943 3742.603a6.63 6.63 0 0 1 4.711 1.938 6.625 6.625 0 0 1 .001 9.385l-26.064 25.958a1.416 1.416 0 0 1-.055.054l-.084.083-.038.035-.087.08-.034.03-.087.078-.054.045-.051.042-.071.059-.091.072-.034.025-.092.07a1.038 1.038 0 0 1-.048.035l-.093.066-.05.035-.095.063c-.01.007-.021.015-.032.021l-.096.062c-.016.01-.03.02-.046.028l-.098.059-.047.028-.1.057-.043.024-.053.028a1.515 1.515 0 0 1-.096.051l-.1.051-.041.02-.102.049-.052.023-.053.023c-.032.016-.065.03-.098.044l-.103.042-.035.014-.105.04-.047.02-.107.038a1.345 1.345 0 0 1-.056.019l-.053.017a2.163 2.163 0 0 1-.1.034l-.107.032a1.16 1.16 0 0 1-.044.013l-.107.03a1.069 1.069 0 0 1-.043.011l-.107.028-.052.012-.11.025c-.013.004-.028.006-.042.009l-.108.023a.865.865 0 0 1-.06.01l-.053.01a1.661 1.661 0 0 1-.1.018l-.11.017-.05.007-.112.014-.045.005-.052.006a1.722 1.722 0 0 1-.103.01l-.11.01-.064.004-.052.003a1.372 1.372 0 0 1-.103.006l-.11.003-.034.001-.11.001H1376.705l-.034-.002-.11-.003c-.035 0-.07-.003-.103-.006l-.052-.003c-.021 0-.042-.002-.063-.004l-.11-.01a2.472 2.472 0 0 1-.105-.01l-.052-.006a2.584 2.584 0 0 1-.047-.005l-.11-.014-.05-.007-.109-.017-.097-.017-.054-.01-.062-.011-.108-.022-.047-.011-.108-.025a1.409 1.409 0 0 0-.044-.01l-.109-.028a5.756 5.756 0 0 1-.045-.012l-.107-.03-.046-.014-.107-.032a1.621 1.621 0 0 1-.106-.035l-.051-.017-.052-.017-.106-.039-.047-.018-.105-.04-.028-.012-.105-.043a2.043 2.043 0 0 1-.111-.05l-.052-.022-.044-.02-.102-.049a1.564 1.564 0 0 1-.053-.027l-.101-.05a.5.5 0 0 1-.032-.017l-.1-.053a1.676 1.676 0 0 1-.058-.033l-.098-.055-.04-.024-.097-.059-.04-.024-.096-.061-.046-.03-.095-.065a1.825 1.825 0 0 1-.042-.029l-.094-.066-.039-.029-.093-.07a1.71 1.71 0 0 1-.051-.038l-.09-.073-.032-.025-.089-.074c-.014-.011-.028-.022-.041-.035l-.088-.077a1.472 1.472 0 0 1-.046-.041l-.086-.08-.038-.036-.085-.083-9.801-9.76a6.626 6.626 0 0 1 0-9.385 6.632 6.632 0 0 1 4.712-1.939c1.783 0 3.456.689 4.711 1.938l5.075 5.055 21.385-21.298a6.632 6.632 0 0 1 4.713-1.939zm1.812 4.826a2.55 2.55 0 0 0-1.813-.742c-.688 0-1.332.263-1.812.742l-22.836 22.742a2.058 2.058 0 0 1-2.899 0l-6.524-6.499a2.55 2.55 0 0 0-1.812-.742 2.549 2.549 0 0 0-1.813 4.354l9.884 9.838.354.266.385.195.201.073h.002l.353.082.015.003.177.021.012.002.102.006h.013l.037.001.064.001.102-.002h.012l.1-.006.014-.002.177-.021a.131.131 0 0 1 .013-.003l.354-.082a.087.087 0 0 0 .007-.003l.23-.083.003-.002.346-.178.244-.172a.033.033 0 0 1 .006-.005l.19-.17.014-.013 26.098-25.991c1-.995.999-2.615 0-3.61z"/></defs><g><g transform="translate(-1344 -3719)"><use fill="#f5cd3a" xlink:href="#7rvra"/></g><g transform="translate(-1344 -3719)"><use fill="#1b242c" xlink:href="#7rvrb"/></g></g></svg>