<svg xmlns="http://www.w3.org/2000/svg" xmlns:xlink="http://www.w3.org/1999/xlink" width="26" height="24" viewBox="0 0 26 24"><defs><path id="h95ha" d="M1104.186 49.932a19.453 19.453 0 0 1-6.491-4.986c-1.49-1.765-2.498-3.414-3.166-5.19-.276-.734-.636-1.847-.536-3.044.064-.75.377-1.4.918-1.936l1.41-1.385c.44-.417.95-.63 1.475-.63.53 0 1.034.219 1.453.63.254.234.52.494.769.75.127.124.254.254.382.38l1.124 1.103c.445.437.679.942.679 1.462 0 .521-.234 1.026-.68 1.463l-.35.344c-.291.291-.593.588-.911.879.238.505.578 1.03 1.076 1.645 1.05 1.27 2.153 2.259 3.368 3.013.116.073.254.141.397.214.085.042.175.084.26.13l1.252-1.228c.43-.427.944-.651 1.474-.651.536 0 1.045.224 1.464.656l2.264 2.222c.875.86.88 2.03.01 2.92-.174.183-.354.36-.535.526-.26.244-.504.474-.716.723l-.021.021c-.642.687-1.464 1.036-2.445 1.036-.085 0-.175-.005-.265-.01-1.432-.089-2.71-.614-3.66-1.057zm.551-1.15c.844.396 1.973.859 3.182.937.064.005.122.005.186.005.615 0 1.082-.193 1.48-.61.254-.296.535-.556.8-.81.175-.167.345-.323.499-.485.392-.401.392-.77.016-1.14l-2.275-2.233c-.128-.13-.313-.276-.536-.276-.228 0-.43.151-.557.276l-1.41 1.385c-.33.327-.732.395-1.14.198-.022-.01-.038-.022-.06-.032-.116-.072-.253-.14-.397-.213-.17-.084-.344-.167-.514-.276-1.331-.827-2.535-1.905-3.68-3.29-.642-.791-1.056-1.457-1.353-2.16l-.016-.042c-.085-.25-.153-.63.234-1.01l.026-.025c.356-.312.684-.64 1.029-.984.117-.12.233-.234.355-.353.133-.136.297-.34.297-.563 0-.224-.159-.427-.297-.562l-1.124-1.104c-.133-.13-.265-.26-.392-.39a24.558 24.558 0 0 0-.743-.723c-.132-.13-.323-.27-.551-.27-.239 0-.44.145-.568.265l-1.39 1.363c-.339.333-.519.708-.556 1.156-.064.728.08 1.5.456 2.493.62 1.64 1.554 3.17 2.949 4.814a18.205 18.205 0 0 0 6.05 4.659zm4.428-8.593a.65.65 0 0 1 .785-.469c.61.146 1.241.219 1.878.219 3.791 0 6.873-2.618 6.873-5.835s-3.082-5.835-6.873-5.835c-3.792 0-6.873 2.618-6.873 5.835 0 1.337.52 2.592 1.5 3.638a.635.635 0 0 1 .133.656c-.148.39-.34.739-.583 1.04.44-.046.938-.17 1.405-.447a.656.656 0 0 1 .891.219.63.63 0 0 1-.223.874c-1.256.745-2.603.693-3.298.6a.848.848 0 0 1-.716-.646.832.832 0 0 1 .366-.89c.328-.209.594-.5.785-.86-1.008-1.207-1.56-2.675-1.56-4.179 0-3.924 3.665-7.11 8.173-7.11 4.507 0 8.172 3.19 8.172 7.11 0 3.92-3.665 7.11-8.172 7.11a9.295 9.295 0 0 1-2.185-.26.635.635 0 0 1-.478-.77zm2.663-6.757c.38 0 .69.303.69.677a.683.683 0 0 1-.69.677.683.683 0 0 1-.69-.677c0-.374.309-.677.69-.677zm2.455 0c.38 0 .69.303.69.677a.683.683 0 0 1-.69.677.683.683 0 0 1-.69-.677c0-.374.31-.677.69-.677zm-4.91 0c.38 0 .689.303.689.677a.683.683 0 0 1-.69.677.683.683 0 0 1-.689-.677c0-.374.309-.677.69-.677z"/></defs><g><g transform="translate(-1094 -27)"><use fill="#f5cd3a" xlink:href="#h95ha"/></g></g></svg>