<svg xmlns="http://www.w3.org/2000/svg" xmlns:xlink="http://www.w3.org/1999/xlink" width="25" height="25" viewBox="0 0 25 25"><defs><path id="axaga" d="M38.096 139.9a.55.55 0 0 1 0-.8l8.561-8.561c.228-.229.342-.571.342-.8 0-.228-.114-.57-.342-.799l-1.598-1.598a1.232 1.232 0 0 0-.799-.342c-.343 0-.57.114-.8.342l-8.561 8.562a.551.551 0 0 1-.799 0l-8.562-8.562a1.233 1.233 0 0 0-.799-.342c-.228 0-.57.114-.799.342l-1.598 1.598c-.228.229-.343.571-.343.8 0 .228.115.57.343.799l8.561 8.561a.55.55 0 0 1 0 .8l-8.56 8.561c-.229.228-.344.57-.344.799 0 .229.115.57.343.799l1.598 1.598c.229.229.571.343.8.343.227 0 .57-.114.798-.343l8.562-8.561a.551.551 0 0 1 .799 0l8.562 8.561c.228.229.57.343.8.343.227 0 .57-.114.798-.343l1.598-1.598c.228-.228.342-.57.342-.8 0-.227-.114-.57-.342-.798z"/></defs><g><g transform="translate(-22 -127)"><use fill="#f5cd3a" xlink:href="#axaga"/></g></g></svg>