<svg xmlns="http://www.w3.org/2000/svg" xmlns:xlink="http://www.w3.org/1999/xlink" width="30" height="25" viewBox="0 0 30 25"><defs><path id="9w63a" d="M52 130.75c0 .75-.5 1.25-1.25 1.25h-27.5c-.75 0-1.25-.5-1.25-1.25v-2.5c0-.75.5-1.25 1.25-1.25h27.5c.75 0 1.25.5 1.25 1.25zm0 10c0 .75-.5 1.25-1.25 1.25h-27.5c-.75 0-1.25-.5-1.25-1.25v-2.5c0-.75.5-1.25 1.25-1.25h27.5c.75 0 1.25.5 1.25 1.25zm0 10c0 .75-.5 1.25-1.25 1.25h-27.5c-.75 0-1.25-.5-1.25-1.25v-2.5c0-.75.5-1.25 1.25-1.25h27.5c.75 0 1.25.5 1.25 1.25z"/></defs><g><g transform="translate(-22 -127)"><use fill="#f5cd3a" xlink:href="#9w63a"/></g></g></svg>