<svg xmlns="http://www.w3.org/2000/svg" xmlns:xlink="http://www.w3.org/1999/xlink" width="32" height="32" viewBox="0 0 32 32"><defs><path id="vwc8a" d="M1432 112c0-8.837 7.163-16 16-16s16 7.163 16 16-7.163 16-16 16-16-7.163-16-16z"/><path id="vwc8b" d="M1451.38 113.823c.243.052.475.169.663.357l3.556 3.555a1.323 1.323 0 1 1-1.871 1.871l-3.556-3.555a1.327 1.327 0 0 1-.358-.663c-2.439 1.697-5.825 1.464-7.999-.709a6.27 6.27 0 0 1 0-8.856 6.27 6.27 0 0 1 8.856 0c2.174 2.176 2.407 5.56.71 8zm-1.832-6.877a4.68 4.68 0 0 0-6.61 0 4.681 4.681 0 0 0 0 6.611 4.682 4.682 0 0 0 6.61 0 4.68 4.68 0 0 0 0-6.61z"/></defs><g><g transform="translate(-1432 -96)"><use fill="#f5cd3a" xlink:href="#vwc8a"/></g><g transform="translate(-1432 -96)"><use fill="#2c2c2c" xlink:href="#vwc8b"/></g></g></svg>