<svg xmlns="http://www.w3.org/2000/svg" xmlns:xlink="http://www.w3.org/1999/xlink" width="67" height="68" viewBox="0 0 67 68"><defs><path id="r2a4a" d="M1371.579 2708.087c.1 1.99-.404 4.82-3.272 7.38.187 1.308.187 3.37-.98 5.447-1.528 2.716-4.54 4.564-8.95 5.488-1.874.399-4.122.597-6.702.597a65.49 65.49 0 0 1-4.829-.198c-9.469.184-18.693-.968-19.212-1.039l-3.387-.398a6.04 6.04 0 0 1-3.46 1.081h-8.791c-3.3 0-5.996-2.645-5.996-5.916v-23.107c0-3.256 2.68-5.915 5.996-5.915h8.792c1.037 0 2.003.255 2.853.71.606-1.308 1.5-2.801 2.825-4.18.072-.071.144-.142.23-.199 4.512-3.427 9.845-15.77 11.748-20.804-.202-1.564-.39-4.948 1.21-6.783a3.64 3.64 0 0 1 2.782-1.252c1.124 0 4.944.257 7.336 3.513 2.277 3.1 2.393 7.736.375 13.793-1.7 5.09-1.86 7.352-1.802 8.262a58.57 58.57 0 0 1 2.263-.455h.014c.13-.028 3.3-.725 7.092-.896 5.39-.256 9.282.668 11.573 2.73 3.128 2.816 2.767 6.442 1.83 8.746.808 1.038 1.788 2.73 1.874 4.892.087 1.962-.59 3.867-2.003 5.645a9.5 9.5 0 0 1 .59 2.858zm-59.583 14.504h8.792c1.153 0 2.104-.924 2.104-2.076v-23.107c0-1.138-.937-2.076-2.104-2.076h-8.792c-1.153 0-2.105.924-2.105 2.076v23.121c0 1.138.937 2.077 2.105 2.077zm57.104-22.865c-.072-1.892-1.586-3.3-1.6-3.314-.72-.64-.88-1.677-.346-2.474.187-.298 1.845-3.086-.49-5.19-2.753-2.474-10.68-1.891-15.105-.939l-.187.043a41.05 41.05 0 0 0-2.508.498c-.922.327-2.19.284-3.142-.555-1.917-1.678-1.715-5.489.706-12.727 1.586-4.75 1.643-8.333.173-10.338-1.24-1.692-3.3-1.905-4.064-1.92-.346.584-.433 2.532-.188 4.124.058.327.03.654-.086.953-.274.74-6.601 17.818-13.073 22.88-1.7 1.806-2.421 3.925-2.68 4.878.173.554.273 1.151.273 1.763v23.121c0 .427-.043.854-.13 1.252l1.456.17h.015c.1.015 9.469 1.21 18.737 1.01h.201c4.353.341 7.899.242 10.507-.313 3.258-.682 5.405-1.905 6.371-3.611 1.009-1.778.39-3.655.39-3.67a1.922 1.922 0 0 1 .662-2.189c1.903-1.408 2.81-3.057 2.71-4.92-.072-1.366-.663-2.361-.663-2.375a1.892 1.892 0 0 1 .26-2.318c1.253-1.28 1.859-2.574 1.8-3.84z"/></defs><g><g transform="translate(-1306 -2659)"><use fill="#1b242c" xlink:href="#r2a4a"/></g></g></svg>