<svg xmlns="http://www.w3.org/2000/svg" xmlns:xlink="http://www.w3.org/1999/xlink" width="120" height="58" viewBox="0 0 120 58"><defs><path id="tur7a" d="M778.217 2708.331c0 6.15-5.004 11.154-11.155 11.154-6.15 0-11.154-5.003-11.154-11.154 0-6.15 5.004-11.153 11.154-11.153 1.551 0 3.053.313 4.464.929a1.761 1.761 0 1 1-1.41 3.228 7.577 7.577 0 0 0-3.054-.635c-4.208 0-7.632 3.423-7.632 7.631s3.424 7.632 7.632 7.632c4.209 0 7.633-3.423 7.633-7.631a7.575 7.575 0 0 0-.637-3.059 1.761 1.761 0 1 1 3.226-1.413c.619 1.413.933 2.918.933 4.471zm48.845 0c0 6.15-5.004 11.154-11.154 11.154s-11.155-5.003-11.155-11.154c0-6.15 5.004-11.153 11.155-11.153 1.55 0 3.052.313 4.463.929a1.76 1.76 0 1 1-1.41 3.228 7.577 7.577 0 0 0-3.053-.635c-4.208 0-7.632 3.423-7.632 7.631s3.424 7.632 7.632 7.632 7.632-3.423 7.632-7.631a7.577 7.577 0 0 0-.637-3.059 1.761 1.761 0 1 1 3.226-1.413c.62 1.413.933 2.918.933 4.471zM859 2723.36c0 .972-.789 1.761-1.762 1.761h-11.272c-5.114 0-9.276-4.16-9.276-9.275v-.118h-3.644c-2.871 6.624-9.47 11.271-17.138 11.271-7.668 0-14.268-4.647-17.138-11.27H784.2c-2.87 6.623-9.47 11.27-17.138 11.27-7.667 0-14.267-4.647-17.137-11.27h-5.406a5.525 5.525 0 0 1-5.52-5.519v-9.393c0-1.368.76-2.56 1.88-3.182v-9.967a5.525 5.525 0 0 1 5.518-5.518h22.662v-5.754c0-4.078 3.318-7.396 7.397-7.396h28.18a1.761 1.761 0 0 1 0 3.522h-3.875v24.916a18.819 18.819 0 0 1 3.995-4.07c0-.021-.003-.043-.003-.065v-3.757a5.525 5.525 0 0 1 5.519-5.518h11.39v-1.996a1.761 1.761 0 0 1 3.522 0v1.996h2.059a9.255 9.255 0 0 1 7.109 3.317l7.384 8.808 3.174-2.38a1.761 1.761 0 0 1 2.818 1.431c-.002.174-.099 17.27 8.38 26.395h1.13c.973 0 1.762.788 1.762 1.76zm-61.761-45.203h-17.026a.117.117 0 0 0-.117.118v3.875h17.143zm-48.439 34.05a18.654 18.654 0 0 1-.407-3.876c0-2.718.589-5.3 1.638-7.631h-7.391a.118.118 0 0 0-.118.117v9.393c0 1.1.896 1.996 1.997 1.996zm33.41-3.876c0-8.35-6.796-15.145-15.148-15.145-8.351 0-15.146 6.794-15.146 15.145 0 8.352 6.795 15.146 15.146 15.146 8.352 0 15.147-6.794 15.147-15.146zm3.522 0c0 1.33-.142 2.625-.407 3.875h11.914V2700.7h-9.511a1.761 1.761 0 1 1 0-3.522h9.51v-11.506h-18.904a1.761 1.761 0 0 1-1.76-1.761v-5.636a3.644 3.644 0 0 1 3.64-3.64h17.025v-2.113h-20.783a3.88 3.88 0 0 0-3.875 3.874v7.515c0 .972-.789 1.761-1.761 1.761h-24.423c-1.1 0-1.996.895-1.996 1.996v9.51h7.632l.066.003c3.407-4.56 8.846-7.517 14.963-7.517 10.295 0 18.67 8.374 18.67 18.667zm45.322 0c0-8.35-6.794-15.145-15.146-15.145s-15.147 6.794-15.147 15.145c0 8.352 6.795 15.146 15.147 15.146s15.146-6.794 15.146-15.146zm5.636 3.875v-7.632c0-2.278.857-4.474 2.347-6.157l-7.385-8.81a5.74 5.74 0 0 0-4.41-2.057h-16.97c-1.1 0-1.996.896-1.996 1.996v1.755a18.555 18.555 0 0 1 7.632-1.637c10.294 0 18.67 8.374 18.67 18.667 0 1.33-.143 2.625-.408 3.875zm14.876 9.393c-5.434-7.528-6.862-17.721-7.233-22.99l-1.818 1.363a5.781 5.781 0 0 0-2.302 4.602v11.272a5.76 5.76 0 0 0 5.754 5.753z"/></defs><g><g transform="translate(-739 -2669)"><use fill="#1b242c" xlink:href="#tur7a"/></g></g></svg>