<svg xmlns="http://www.w3.org/2000/svg" xmlns:xlink="http://www.w3.org/1999/xlink" width="97" height="72" viewBox="0 0 97 72"><defs><path id="oinga" d="M582 2715.746v1.661h-22.433l-6.29 9.592h-39.554l-6.29-9.592H485v-1.661c0-4.569.64-9.086 1.9-13.428l.348-1.2h3.527c.33-8.636 3.225-16.823 8.427-23.77 5.165-6.898 12.45-12.168 20.592-14.915l-.386-5.357 1.319-.362A48.254 48.254 0 0 1 533.5 2655c4.333 0 8.631.576 12.774 1.714l1.319.362-.386 5.357c8.14 2.747 15.425 8.017 20.59 14.915 5.201 6.948 8.097 15.134 8.427 23.77h3.526l.348 1.2a48.121 48.121 0 0 1 1.9 13.428zm-35.04-49.878l-2.542 35.25h28.468c-.328-7.914-2.994-15.414-7.763-21.784-4.588-6.129-10.99-10.862-18.163-13.466zm-24.027-6.291l2.996 41.541h15.144l2.996-41.541a44.975 44.975 0 0 0-10.568-1.254c-3.575 0-7.124.421-10.568 1.254zm-28.819 41.541h28.47l-2.542-35.25c-7.174 2.604-13.576 7.337-18.165 13.466-4.77 6.37-7.436 13.87-7.763 21.784zm61.468 16.29h-44.164l4.11 6.269h35.943zm23.05-3.324a44.77 44.77 0 0 0-1.407-9.642h-87.45a44.8 44.8 0 0 0-1.408 9.642z"/></defs><g><g transform="translate(-485 -2655)"><use fill="#1b242c" xlink:href="#oinga"/></g></g></svg>