<svg xmlns="http://www.w3.org/2000/svg" xmlns:xlink="http://www.w3.org/1999/xlink" width="80" height="80" viewBox="0 0 80 80"><defs><path id="q2h7a" d="M1656 4408.002c22.056 0 40 17.943 40 40 0 22.055-17.944 40-40 40-22.055 0-40-17.945-40-40 0-22.057 17.945-40 40-40zm0 3.997c-19.853 0-36.003 16.149-36.003 36.004 0 19.852 16.15 36.002 36.003 36.002 19.854 0 36.004-16.15 36.004-36.002 0-19.855-16.15-36.004-36.004-36.004zm0 16.639c.523 0 1.029.195 1.42.588l11.24 11.239c.783.783.783 2.04 0 2.822a1.988 1.988 0 0 1-2.823 0l-7.83-7.829v29.917a2.006 2.006 0 1 1-4.013 0v-29.934l-7.83 7.83a1.989 1.989 0 0 1-2.822 0 1.99 1.99 0 0 1 0-2.823l11.24-11.239a1.97 1.97 0 0 1 1.418-.571z"/></defs><g><g transform="translate(-1616 -4408)"><use fill="#f5cd3a" xlink:href="#q2h7a"/></g></g></svg>